<?xml version="1.0" encoding="utf-8"?>
<!-- Generator: Adobe Illustrator 24.1.2, SVG Export Plug-In . SVG Version: 6.00 Build 0)  -->
<svg version="1.1" xmlns="http://www.w3.org/2000/svg" xmlns:xlink="http://www.w3.org/1999/xlink" x="0px" y="0px"
	 viewBox="0 0 106.78 78.72" style="enable-background:new 0 0 106.78 78.72;" xml:space="preserve">
<style type="text/css">
	.st0{fill:#06070A;}
	.st1{fill:#7437F4;}
	.st2{fill-rule:evenodd;clip-rule:evenodd;fill:#7437F4;}
	.st3{fill-rule:evenodd;clip-rule:evenodd;fill:url(#SVGID_1_);}
</style>
<g id="Слой_1">
	<g>
		<g>
			<path class="st0" d="M67.22,14.1c3.11,2.32,5.23-0.98,7.5,3.6c-0.58-4.88-4.64-5.1-5.4-5.7c-1.99-1.53-3.8-3.22-5.7-3.6
				c1.2-2.48,3.95-2.71,3.9-8.4c-1.42,3.97-7.44,4.39-8.7,5.7c-2.91-1.4-12.05-1.1-15.61-1.5C39.66,3.8,33.39,0,31.51,0
				c-1.88,0-3.97,1.99-3.9,2.1c5.54-1.6,5.68,2.88,11.4,3.6c-5.22,0.05-17.4,6.9-22.51,4.8c7.12,8.38,24.31-2.82,35.71-2.4
				c-3.74,1.12-12.2,3.93-13.8,5.4c2.02,0.4,3.04,0.76,3.9,1.5c-19.26,9.61-14.82,27.71-5.1,33.91c6.42,4.1,5.73,8.38,6,9
				c3.38-8.83-6.94-27.75,5.7-30.31c0.05-4.85,0.72-5.32,3.6-6.6c-2.57,2.37-4.89,11.52,10.8,12c1.38,3.26,4.5,1.83,6.9,5.4
				c0.71,0.96-0.56,3.41,3,3.9c3.38,0.2-0.21-0.6,5.1-0.3c2-1.01,0.9-2.27,1.2-2.7c0.3-0.43,0.85-0.45,0.9-2.1
				C80.7,31.9,68.86,19.21,67.22,14.1z M62.13,52.08c-0.95-0.54-2.52-0.82-4.72-0.82H51.9V64.2h5.53c2.27,0,3.86-0.26,4.77-0.78
				c0.9-0.52,1.36-1.51,1.36-2.97v-5.26C63.55,53.66,63.08,52.62,62.13,52.08z M60.44,60.45c0,0.66-0.23,1.09-0.68,1.27
				c-0.45,0.18-1.28,0.27-2.47,0.27h-2.27v-8.51h2.37c1.02,0,1.79,0.12,2.29,0.36c0.51,0.24,0.76,0.67,0.76,1.3V60.45z M70,51.26
				L65.21,64.2h3.07l1.14-3.41h4.73l1.16,3.41h3.15l-4.67-12.94H70z M70.12,58.71l1.64-4.86h0.08l1.64,4.86H70.12z M90.28,58.08
				c0.57-0.43,0.85-1.03,0.85-1.81v-2.27c0-1-0.39-1.7-1.18-2.11c-0.79-0.41-2.03-0.62-3.73-0.62h-5.83V64.2h3.11v-5.08h1.44
				l3.39,5.08h3.59l-3.75-5.32C89.02,58.77,89.72,58.5,90.28,58.08z M88.08,55.64c0,0.56-0.13,0.93-0.4,1.13
				c-0.27,0.19-0.77,0.29-1.5,0.29h-2.67v-3.59h2.67c0.69,0,1.18,0.09,1.47,0.27c0.29,0.18,0.43,0.51,0.43,0.99V55.64z
				 M101.01,57.28l4.91-6.02h-3.65l-4.85,6.08l5.25,6.86h3.79L101.01,57.28z M94.22,64.2h3.11V51.26h-3.11V64.2z"/>
		</g>
	</g>
</g>
<g id="Слой_2">
	<path class="st1" d="M61.38,67.52H58.8v4.29h-4.56v-4.29h-2.58v10.72h2.58v-4.59h4.56v4.59h2.58V67.52z"/>
	<path class="st1" d="M73.69,69.14c-0.24-0.41-0.54-0.73-0.89-0.95c-0.35-0.22-0.78-0.4-1.27-0.54c-0.5-0.14-0.94-0.22-1.33-0.26
		c-0.39-0.03-0.81-0.05-1.25-0.05c-0.43,0-0.84,0.02-1.22,0.05c-0.39,0.03-0.83,0.12-1.32,0.26c-0.5,0.14-0.92,0.32-1.26,0.54
		c-0.35,0.22-0.64,0.54-0.89,0.96c-0.25,0.42-0.37,0.9-0.37,1.45v4.69c0,0.65,0.17,1.19,0.5,1.63c0.34,0.44,0.79,0.76,1.36,0.96
		c0.57,0.2,1.1,0.33,1.6,0.4c0.5,0.07,1.04,0.11,1.61,0.11c0.61,0,1.18-0.04,1.72-0.13c0.54-0.09,1.08-0.24,1.62-0.45
		c0.54-0.21,0.97-0.54,1.29-0.97c0.32-0.43,0.48-0.95,0.48-1.55V70.6C74.05,70.04,73.93,69.55,73.69,69.14z M71.27,75.98
		c-0.14,0.18-0.34,0.31-0.6,0.39c-0.26,0.08-0.52,0.13-0.77,0.16c-0.25,0.03-0.55,0.04-0.92,0.04c-0.36,0-0.67-0.01-0.92-0.04
		c-0.25-0.03-0.51-0.08-0.78-0.16c-0.27-0.08-0.48-0.21-0.62-0.39c-0.14-0.18-0.21-0.41-0.21-0.69v-4.71c0-0.53,0.21-0.89,0.63-1.1
		c0.42-0.2,1.05-0.31,1.88-0.31c0.83,0,1.45,0.1,1.88,0.31c0.42,0.21,0.64,0.57,0.64,1.09v4.71C71.47,75.57,71.41,75.8,71.27,75.98z
		"/>
	<path class="st1" d="M82.99,73.82c0.69-0.09,1.28-0.31,1.74-0.66c0.47-0.35,0.7-0.85,0.7-1.5v-1.88c0-0.83-0.33-1.41-0.98-1.75
		c-0.65-0.34-1.68-0.51-3.09-0.51h-4.83v10.72h2.58v-4.21h1.19l2.81,4.21h2.97L82.99,73.82z M82.58,72.08
		c-0.22,0.16-0.63,0.24-1.24,0.24h-2.21v-2.97h2.21c0.57,0,0.98,0.07,1.21,0.22c0.24,0.15,0.36,0.42,0.36,0.82v0.76
		C82.91,71.61,82.8,71.92,82.58,72.08z"/>
	<path class="st1" d="M95.43,72.42c-0.53-0.46-1.43-0.69-2.69-0.69h-1.29c-0.95,0-1.42-0.28-1.42-0.84v-0.76
		c0-0.34,0.16-0.58,0.48-0.73c0.32-0.14,0.9-0.21,1.75-0.21c0.62,0,1.76,0.1,3.44,0.3v-1.92c-1.41-0.14-2.53-0.21-3.36-0.21
		c-1.71,0-2.95,0.22-3.73,0.67c-0.78,0.45-1.17,1.13-1.17,2.06v0.79c0,1.87,1.18,2.81,3.54,2.81h1.26c0.56,0,0.94,0.1,1.12,0.31
		c0.19,0.2,0.28,0.47,0.28,0.78v0.69c0,0.74-0.72,1.11-2.15,1.11c-0.73,0-2.01-0.14-3.83-0.43v1.96c1.51,0.2,2.78,0.3,3.8,0.3
		c0.74,0,1.37-0.05,1.91-0.14c0.53-0.09,1.03-0.25,1.48-0.48c0.45-0.23,0.79-0.56,1.02-0.99c0.23-0.43,0.35-0.97,0.35-1.61v-0.71
		C96.23,73.56,95.96,72.88,95.43,72.42z"/>
	<path class="st1" d="M106.78,76.4h-5.77v-2.76h5.06v-1.83h-5.06v-2.46h5.6v-1.83h-8.18v10.72h8.35V76.4z"/>
	<path class="st2" d="M40.33,78.12c-1.85-8.4-28.5-20.61-28.02-36.7C10.67,64.85,24.01,66.77,40.33,78.12z"/>
</g>
<g id="Слой_3">
	<linearGradient id="SVGID_1_" gradientUnits="userSpaceOnUse" x1="22.7056" y1="78.7171" x2="22.7056" y2="14.7051">
		<stop  offset="0.5025" style="stop-color:#06070A"/>
		<stop  offset="1" style="stop-color:#7437F4"/>
	</linearGradient>
	<path class="st3" d="M34.51,14.71C15.95,15.41,11.88,25.9,2.1,21.91c2.79,3.03,7.46,4.88,15.01,2.7C11.97,27.17,5.01,36.09,0,34.81
		c4.57,3.13,15.05-0.42,16.51-2.7c-4.97,25.97,28.82,35.36,28.62,46.61c3.25-15.86-22.62-26.55-22.62-41.81
		C22.51,21.66,32.28,17.21,34.51,14.71z"/>
</g>
</svg>
