<?xml version="1.0" encoding="utf-8"?>
<!-- Generator: Adobe Illustrator 24.1.2, SVG Export Plug-In . SVG Version: 6.00 Build 0)  -->
<svg version="1.1" id="Слой_1" xmlns="http://www.w3.org/2000/svg" xmlns:xlink="http://www.w3.org/1999/xlink" x="0px" y="0px"
	 viewBox="0 0 22.42 22.42" style="enable-background:new 0 0 22.42 22.42;" xml:space="preserve">
<style type="text/css">
	.st0{fill:url(#SVGID_1_);}
</style>
<g>
	<g>
		<linearGradient id="SVGID_1_" gradientUnits="userSpaceOnUse" x1="22.4192" y1="11.2094" x2="0" y2="11.2094">
			<stop  offset="0" style="stop-color:#55CAFF"/>
			<stop  offset="1" style="stop-color:#E231FB"/>
		</linearGradient>
		<path class="st0" d="M11.21,0C5.03,0,0,5.03,0,11.21c0,6.18,5.03,11.21,11.21,11.21c6.18,0,11.21-5.03,11.21-11.21
			C22.42,5.03,17.39,0,11.21,0z M17.11,18.22c-0.54-2.76-2.97-4.86-5.9-4.86c-2.93,0-5.36,2.1-5.9,4.86
			c-1.98-1.67-3.26-4.2-3.26-7.01c0-5.05,4.11-9.16,9.16-9.16s9.16,4.11,9.16,9.16C20.37,14.02,19.09,16.54,17.11,18.22z M11.21,5
			C9.19,5,7.55,6.64,7.55,8.66c0,2.02,1.64,3.66,3.66,3.66c2.02,0,3.66-1.64,3.66-3.66C14.87,6.64,13.23,5,11.21,5z"/>
	</g>
</g>
</svg>
