<?xml version="1.0" encoding="utf-8"?>
<!-- Generator: Adobe Illustrator 24.1.2, SVG Export Plug-In . SVG Version: 6.00 Build 0)  -->
<svg version="1.1" id="Слой_1" xmlns="http://www.w3.org/2000/svg" xmlns:xlink="http://www.w3.org/1999/xlink" x="0px" y="0px"
	 viewBox="0 0 25.91 25.99" style="enable-background:new 0 0 25.91 25.99;" xml:space="preserve">
<style type="text/css">
	.st0{fill:url(#SVGID_1_);}
</style>
<linearGradient id="SVGID_1_" gradientUnits="userSpaceOnUse" x1="25.9142" y1="12.9964" x2="-9.094947e-13" y2="12.9964">
	<stop  offset="0" style="stop-color:#55CAFF"/>
	<stop  offset="1" style="stop-color:#E231FB"/>
</linearGradient>
<path class="st0" d="M21.34,1.77l0.13,0.2c0.76,1.2,0.84,2.35,0.31,3.29l1.55,0c1.43,0,2.59,1.16,2.59,2.59v2.59
	c0,0.97-0.53,1.81-1.32,2.26c0.01,0.11,0.02,0.22,0.02,0.33V23.4c0,1.43-1.16,2.59-2.59,2.59H3.89c-1.43,0-2.59-1.16-2.59-2.59
	V13.03c0-0.11,0.01-0.23,0.02-0.34C0.53,12.25,0,11.41,0,10.44V7.85c0-1.43,1.16-2.59,2.59-2.59l1.64,0
	C3.7,4.32,3.78,3.17,4.54,1.97l0.13-0.2C6.62-1.09,9.51-0.39,13,3.15C16.49-0.39,19.38-1.09,21.34,1.77L21.34,1.77z M11.66,13.03
	l-7.77,0V23.4l7.77,0V13.03z M22.03,13.03l-7.77,0V23.4l7.77,0V13.03z M11.66,7.85l-9.07,0v2.59l9.07,0V7.85z M23.32,7.85l-9.07,0
	v2.59l9.07,0V7.85z M11.17,4.95C8.84,2.51,7.46,2.2,6.73,3.36C6.33,3.98,6.36,4.07,7.09,4.4c0.84,0.38,2.22,0.64,4.14,0.77l-0.02,0
	c0.03-0.03,0.05-0.06,0.08-0.09L11.17,4.95z M14.83,4.95l-0.11,0.11c0.03,0.03,0.05,0.06,0.08,0.09l-0.02,0
	c1.92-0.13,3.31-0.39,4.14-0.77c0.73-0.33,0.76-0.42,0.36-1.04C18.55,2.2,17.17,2.51,14.83,4.95L14.83,4.95z"/>
</svg>
