<?xml version="1.0" encoding="utf-8"?>
<!-- Generator: Adobe Illustrator 24.1.2, SVG Export Plug-In . SVG Version: 6.00 Build 0)  -->
<svg version="1.1" id="Слой_1" xmlns="http://www.w3.org/2000/svg" xmlns:xlink="http://www.w3.org/1999/xlink" x="0px" y="0px"
	 viewBox="0 0 21.49 26.97" style="enable-background:new 0 0 21.49 26.97;" xml:space="preserve">
<style type="text/css">
	.st0{fill:#55CAFF;}
</style>
<g>
	<g>
		<path class="st0" d="M17.45,10.97c0-0.55-0.45-1-1-1h-13c-0.55,0-1,0.45-1,1v13c0,0.55,0.45,1,1,1s1-0.45,1-1v-12h12
			C17,11.97,17.45,11.52,17.45,10.97z M18.45,12.97h-12c-0.55,0-1,0.45-1,1v12c0,0.55,0.45,1,1,1h12c0.55,0,1-0.45,1-1v-12
			C19.45,13.42,19,12.97,18.45,12.97z M4.16,4.02L4.15,3.99H3.71C3.65,4.48,3.49,4.84,3.23,5.09C2.97,5.33,2.59,5.45,2.12,5.45
			c-0.5,0-0.9-0.19-1.2-0.58C0.62,4.49,0.47,4,0.47,3.39V2.46c0-0.6,0.15-1.09,0.45-1.48c0.3-0.39,0.7-0.58,1.2-0.58
			c0.48,0,0.85,0.13,1.11,0.37c0.26,0.25,0.42,0.61,0.49,1.08h0.44l0.01-0.02C4.11,1.25,3.91,0.8,3.55,0.48C3.2,0.16,2.72,0,2.12,0
			C1.48,0,0.97,0.23,0.58,0.69C0.19,1.15,0,1.74,0,2.46v0.93c0,0.73,0.19,1.32,0.58,1.78c0.39,0.46,0.9,0.69,1.53,0.69
			c0.6,0,1.08-0.16,1.43-0.49C3.91,5.03,4.11,4.59,4.16,4.02z M7.9,5.85c0.68,0,1.22-0.23,1.62-0.68c0.4-0.45,0.6-1.05,0.6-1.78
			V2.46c0-0.73-0.2-1.33-0.61-1.78C9.11,0.23,8.57,0,7.89,0c-0.67,0-1.2,0.23-1.6,0.68C5.9,1.14,5.7,1.73,5.7,2.46v0.93
			c0,0.73,0.2,1.33,0.6,1.78C6.7,5.63,7.23,5.85,7.9,5.85z M6.17,2.46c0-0.62,0.15-1.11,0.45-1.49c0.3-0.38,0.72-0.56,1.27-0.56
			c0.55,0,0.98,0.19,1.3,0.56C9.5,1.35,9.66,1.84,9.66,2.46V3.4c0,0.62-0.15,1.12-0.46,1.5C8.88,5.27,8.45,5.45,7.9,5.45
			c-0.54,0-0.97-0.19-1.27-0.56C6.32,4.51,6.17,4.02,6.17,3.4V2.46z M12.42,3.41h1.49c0.6,0,1.06-0.15,1.39-0.45
			c0.33-0.3,0.49-0.71,0.49-1.21c0-0.5-0.16-0.9-0.49-1.2c-0.33-0.3-0.79-0.46-1.39-0.46h-1.96v5.69h0.47V3.41z M12.42,0.48h1.49
			c0.47,0,0.83,0.12,1.06,0.36c0.23,0.24,0.35,0.54,0.35,0.91c0,0.36-0.12,0.66-0.35,0.9c-0.24,0.24-0.59,0.36-1.06,0.36h-1.49V0.48
			z M18.95,5.77h0.47V3.69l2.08-3.61h-0.54l-1.76,3.16l-1.75-3.16h-0.54l2.06,3.58V5.77z"/>
	</g>
</g>
</svg>
