<?xml version="1.0" encoding="utf-8"?>
<!-- Generator: Adobe Illustrator 24.1.2, SVG Export Plug-In . SVG Version: 6.00 Build 0)  -->
<svg version="1.1" id="Слой_1" xmlns="http://www.w3.org/2000/svg" xmlns:xlink="http://www.w3.org/1999/xlink" x="0px" y="0px"
	 viewBox="0 0 17 17" style="enable-background:new 0 0 17 17;" xml:space="preserve">
<style type="text/css">
	.st0{fill:#3C2175;}
</style>
<path class="st0" d="M17,4v12c0,0.55-0.45,1-1,1H4c-0.55,0-1-0.45-1-1V4c0-0.55,0.45-1,1-1h12C16.55,3,17,3.45,17,4z M15,1
	c0-0.55-0.45-1-1-1H1C0.45,0,0,0.45,0,1v13c0,0.55,0.45,1,1,1c0.55,0,1-0.45,1-1V2h12C14.55,2,15,1.55,15,1z"/>
</svg>
