<?xml version="1.0" encoding="utf-8"?>
<!-- Generator: Adobe Illustrator 24.1.2, SVG Export Plug-In . SVG Version: 6.00 Build 0)  -->
<svg version="1.1" id="Слой_1" xmlns="http://www.w3.org/2000/svg" xmlns:xlink="http://www.w3.org/1999/xlink" x="0px" y="0px"
	 viewBox="0 0 19.77 19.77" style="enable-background:new 0 0 19.77 19.77;" xml:space="preserve">
<style type="text/css">
	.st0{fill:#FFFFFF;}
</style>
<g>
	<g>
		<path class="st0" d="M19.72,5.81c-0.05-1.05-0.22-1.77-0.46-2.4c-0.25-0.65-0.59-1.2-1.14-1.75c-0.55-0.55-1.1-0.89-1.75-1.14
			c-0.63-0.24-1.35-0.41-2.4-0.46C12.91,0.01,12.57,0,9.89,0C7.2,0,6.87,0.01,5.81,0.06c-1.05,0.05-1.77,0.22-2.4,0.46
			c-0.65,0.25-1.2,0.59-1.75,1.14c-0.55,0.55-0.89,1.1-1.14,1.75c-0.24,0.63-0.41,1.35-0.46,2.4C0.01,6.87,0,7.2,0,9.89
			c0,2.69,0.01,3.02,0.06,4.08c0.05,1.05,0.22,1.77,0.46,2.4c0.25,0.65,0.59,1.2,1.14,1.75c0.55,0.55,1.1,0.89,1.75,1.14
			c0.63,0.24,1.35,0.41,2.4,0.46c1.05,0.05,1.39,0.06,4.08,0.06c2.69,0,3.02-0.01,4.08-0.06c1.05-0.05,1.77-0.22,2.4-0.46
			c0.65-0.25,1.2-0.59,1.75-1.14c0.55-0.55,0.89-1.1,1.14-1.75c0.24-0.63,0.41-1.35,0.46-2.4c0.05-1.05,0.06-1.39,0.06-4.08
			C19.77,7.2,19.76,6.87,19.72,5.81z M17.94,13.88c-0.04,0.96-0.21,1.49-0.34,1.84c-0.18,0.46-0.39,0.79-0.74,1.14
			c-0.35,0.35-0.68,0.56-1.14,0.74c-0.35,0.14-0.87,0.3-1.84,0.34c-1.04,0.05-1.36,0.06-4,0.06c-2.64,0-2.95-0.01-4-0.06
			c-0.96-0.04-1.49-0.21-1.84-0.34c-0.46-0.18-0.79-0.39-1.14-0.74c-0.35-0.35-0.56-0.68-0.74-1.14c-0.14-0.35-0.3-0.87-0.34-1.84
			c-0.05-1.04-0.06-1.36-0.06-4c0-2.64,0.01-2.95,0.06-4c0.04-0.96,0.2-1.49,0.34-1.84c0.18-0.46,0.39-0.79,0.74-1.14
			c0.35-0.35,0.68-0.56,1.14-0.74c0.35-0.14,0.87-0.3,1.84-0.34c1.04-0.05,1.36-0.06,4-0.06c2.64,0,2.95,0.01,4,0.06
			c0.96,0.04,1.49,0.21,1.84,0.34c0.46,0.18,0.79,0.39,1.14,0.74c0.35,0.35,0.56,0.68,0.74,1.14c0.14,0.35,0.3,0.87,0.34,1.84
			c0.05,1.04,0.06,1.36,0.06,4C17.99,12.53,17.98,12.84,17.94,13.88z M9.89,4.81c-2.8,0-5.08,2.27-5.08,5.08s2.27,5.08,5.08,5.08
			c2.8,0,5.08-2.27,5.08-5.08S12.69,4.81,9.89,4.81z M9.89,13.18c-1.82,0-3.3-1.48-3.3-3.3c0-1.82,1.48-3.3,3.3-3.3
			c1.82,0,3.3,1.48,3.3,3.3C13.18,11.71,11.71,13.18,9.89,13.18z M15.17,3.42c-0.66,0-1.19,0.53-1.19,1.19
			c0,0.66,0.53,1.19,1.19,1.19c0.66,0,1.19-0.53,1.19-1.19C16.35,3.95,15.82,3.42,15.17,3.42z"/>
	</g>
</g>
</svg>
