<?xml version="1.0" encoding="utf-8"?>
<!-- Generator: Adobe Illustrator 24.1.2, SVG Export Plug-In . SVG Version: 6.00 Build 0)  -->
<svg version="1.1" id="Слой_1" xmlns="http://www.w3.org/2000/svg" xmlns:xlink="http://www.w3.org/1999/xlink" x="0px" y="0px"
	 viewBox="0 0 20 24.03" style="enable-background:new 0 0 20 24.03;" xml:space="preserve">
<style type="text/css">
	.st0{fill:url(#SVGID_1_);}
</style>
<g>
	<g>
		<linearGradient id="SVGID_1_" gradientUnits="userSpaceOnUse" x1="20" y1="12.0156" x2="0" y2="12.0156">
			<stop  offset="0" style="stop-color:#55CAFF"/>
			<stop  offset="1" style="stop-color:#E231FB"/>
		</linearGradient>
		<path class="st0" d="M15,13.2H5c-0.55,0-1,0.44-1,0.98c0,0.54,0.45,0.98,1,0.98h10c0.55,0,1-0.44,1-0.98
			C16,13.65,15.55,13.2,15,13.2z M15,9.27H5c-0.55,0-1,0.44-1,0.98c0,0.54,0.45,0.98,1,0.98h10c0.55,0,1-0.44,1-0.98
			C16,9.71,15.55,9.27,15,9.27z M15,17.14H5c-0.55,0-1,0.44-1,0.98c0,0.54,0.45,0.98,1,0.98h10c0.55,0,1-0.44,1-0.98
			C16,17.58,15.55,17.14,15,17.14z M15,5.33H5c-0.55,0-1,0.44-1,0.98C4,6.86,4.45,7.3,5,7.3h10c0.55,0,1-0.44,1-0.98
			C16,5.77,15.55,5.33,15,5.33z M17,0H3C1.34,0,0,1.32,0,2.95v18.13c0,1.63,1.34,2.95,3,2.95h14c1.66,0,3-1.32,3-2.95V2.95
			C20,1.32,18.66,0,17,0z M18,21.08c0,0.54-0.45,0.98-1,0.98H3c-0.55,0-1-0.44-1-0.98V2.95c0-0.54,0.45-0.98,1-0.98h14
			c0.55,0,1,0.44,1,0.98V21.08z"/>
	</g>
</g>
</svg>
