<?xml version="1.0" encoding="utf-8"?>
<!-- Generator: Adobe Illustrator 24.1.2, SVG Export Plug-In . SVG Version: 6.00 Build 0)  -->
<svg version="1.1" id="Слой_1" xmlns="http://www.w3.org/2000/svg" xmlns:xlink="http://www.w3.org/1999/xlink" x="0px" y="0px"
	 viewBox="0 0 30 25" style="enable-background:new 0 0 30 25;" xml:space="preserve">
<style type="text/css">
	.st0{fill:url(#SVGID_1_);}
</style>
<g>
	<g>
		<linearGradient id="SVGID_1_" gradientUnits="userSpaceOnUse" x1="30" y1="12.502" x2="0" y2="12.502">
			<stop  offset="0" style="stop-color:#55CAFF"/>
			<stop  offset="1" style="stop-color:#E231FB"/>
		</linearGradient>
		<path class="st0" d="M5.12,16.62C2.69,17.72,0,21.16,0,24c0,0.55,0.28,1.05,1,1c0.72-0.05,0.99-0.45,1.1-2
			c0.11-1.55,2.37-3.86,3.76-4.52C7.29,17.8,6,16.22,5.12,16.62z M6.79,14.06c1.4,1.2,2.39-0.6,1.34-1.48C6.83,11.48,6,9.84,6,8
			c0-2.27,1.26-4.24,3.12-5.26c0.85-0.47,0.38-2.43-0.69-1.9C5.8,2.15,4,4.86,4,8C4,10.42,5.08,12.6,6.79,14.06z M18,16
			c4.42,0,8-3.58,8-8c0-4.42-3.58-8-8-8c-4.42,0-8,3.58-8,8C10.01,12.42,13.58,16,18,16z M18,2c3.31,0,6,2.69,6,6c0,3.31-2.69,6-6,6
			c-3.31,0-6-2.69-6-6C12,4.69,14.69,2,18,2z M23,17H13c-3.86,0-7,3.14-7,7c0,0.55,0.45,1,1,1h22c0.55,0,1-0.45,1-1
			C30,20.14,26.86,17,23,17z M8.1,23c0.48-2.33,2.52-4,4.9-4h10c2.38,0,4.42,1.67,4.9,4H8.1z"/>
	</g>
</g>
</svg>
