<?xml version="1.0" encoding="utf-8"?>
<!-- Generator: Adobe Illustrator 24.1.2, SVG Export Plug-In . SVG Version: 6.00 Build 0)  -->
<svg version="1.1" id="Слой_1" xmlns="http://www.w3.org/2000/svg" xmlns:xlink="http://www.w3.org/1999/xlink" x="0px" y="0px"
	 viewBox="0 0 22 25.84" style="enable-background:new 0 0 22 25.84;" xml:space="preserve">
<style type="text/css">
	.st0{fill:url(#SVGID_1_);}
</style>
<g>
	<g>
		<linearGradient id="SVGID_1_" gradientUnits="userSpaceOnUse" x1="21.9961" y1="12.9214" x2="0" y2="12.9214">
			<stop  offset="0" style="stop-color:#55CAFF"/>
			<stop  offset="1" style="stop-color:#E231FB"/>
		</linearGradient>
		<path class="st0" d="M20.87,7.38l-8.62-6.93c-0.73-0.59-1.77-0.59-2.5,0L1.13,7.38C0.41,7.95,0,8.81,0,9.73v13.1
			c0,1.66,1.34,3.01,3,3.01h16c1.66,0,3-1.35,3-3.01V9.73C22,8.81,21.58,7.95,20.87,7.38z M14,23.83H8v-6.03
			c0-1.66,1.34-3.01,3-3.01c1.66,0,3,1.35,3,3.01V23.83z M20,22.83c0,0.55-0.45,1-1,1h-3v-6.03c0-2.77-2.24-5.02-5-5.02
			c-2.76,0-5,2.25-5,5.02v6.03H3c-0.55,0-1-0.45-1-1V9.73c0-0.31,0.14-0.59,0.38-0.78L11,2.01l8.62,6.93C19.86,9.13,20,9.42,20,9.73
			V22.83z"/>
	</g>
</g>
</svg>
