<?xml version="1.0" encoding="utf-8"?>
<!-- Generator: Adobe Illustrator 24.1.2, SVG Export Plug-In . SVG Version: 6.00 Build 0)  -->
<svg version="1.1" id="Слой_1" xmlns="http://www.w3.org/2000/svg" xmlns:xlink="http://www.w3.org/1999/xlink" x="0px" y="0px"
	 viewBox="0 0 22 23" style="enable-background:new 0 0 22 23;" xml:space="preserve">
<style type="text/css">
	.st0{fill:url(#SVGID_1_);}
</style>
<g>
	<g>
		<linearGradient id="SVGID_1_" gradientUnits="userSpaceOnUse" x1="22.0012" y1="11.5" x2="3.816209e-06" y2="11.5">
			<stop  offset="0" style="stop-color:#55CAFF"/>
			<stop  offset="1" style="stop-color:#E231FB"/>
		</linearGradient>
		<path class="st0" d="M19,5h-3c0-2.76-2.24-5-5-5s-5,2.24-5,5h-3c-1.65,0-3,1.34-3,3v1.23H0c0,0.05,0.01,0.1,0.02,0.16V20
			c0,1.66,1.34,3,3,3H19c1.66,0,3-1.34,3-3V8C22,6.34,20.66,5,19,5z M11.01,2c1.66,0,3,1.34,3,3h-6C8.01,3.34,9.35,2,11.01,2z
			 M3.01,7H19c0.55,0,1,0.45,1,1v1.23h-0.02c0,0.55-0.45,1-1,1H3c-0.52,0-0.94-0.41-0.98-0.92V8C2.02,7.45,2.46,7,3.01,7z M19,21
			H3.01c-0.55,0-1-0.45-1-1v-7.95c0.31,0.11,0.64,0.18,0.98,0.18h15.99c0.36,0,0.7-0.07,1.02-0.19V20C20,20.55,19.55,21,19,21z"/>
	</g>
</g>
</svg>
