<?xml version="1.0" encoding="utf-8"?>
<!-- Generator: Adobe Illustrator 24.1.2, SVG Export Plug-In . SVG Version: 6.00 Build 0)  -->
<svg version="1.1" id="Слой_1" xmlns="http://www.w3.org/2000/svg" xmlns:xlink="http://www.w3.org/1999/xlink" x="0px" y="0px"
	 viewBox="0 0 28 24" style="enable-background:new 0 0 28 24;" xml:space="preserve">
<style type="text/css">
	.st0{fill:url(#SVGID_1_);}
</style>
<g>
	<g>
		<linearGradient id="SVGID_1_" gradientUnits="userSpaceOnUse" x1="28" y1="12.0002" x2="0" y2="12.0002">
			<stop  offset="0" style="stop-color:#55CAFF"/>
			<stop  offset="1" style="stop-color:#E231FB"/>
		</linearGradient>
		<path class="st0" d="M9.94,1.09c-0.41-0.46-1.12-0.5-1.58-0.08C8.12,1.22,7.99,1.52,7.99,1.84V7H1.12C0.5,7,0,7.5,0,8.12v7.76
			C0,16.5,0.5,17,1.12,17h6.87v5.16c0,0.62,0.5,1.12,1.12,1.12c0.32,0,0.62-0.13,0.83-0.37l9.15-10.16c0.38-0.43,0.38-1.07,0-1.5
			L9.94,1.09z M10.23,19.24v-3.36c0-0.62-0.5-1.12-1.12-1.12H2.24V9.24h6.87c0.62,0,1.12-0.5,1.12-1.12V4.76L16.76,12L10.23,19.24z
			 M24.01,0c-2.21,0-3.99,1.79-3.99,3.99v16.01c0,2.21,1.79,3.99,3.99,3.99S28,22.21,28,20.01V3.99C28,1.79,26.21,0,24.01,0z
			 M25.76,20.01c-0.01,0.97-0.8,1.75-1.77,1.74c-0.96-0.01-1.73-0.78-1.74-1.74V3.99c0.01-0.97,0.8-1.75,1.77-1.74
			c0.96,0.01,1.73,0.78,1.74,1.74V20.01z"/>
	</g>
</g>
</svg>
