<?xml version="1.0" encoding="utf-8"?>
<!-- Generator: Adobe Illustrator 24.1.2, SVG Export Plug-In . SVG Version: 6.00 Build 0)  -->
<svg version="1.1" id="Слой_1" xmlns="http://www.w3.org/2000/svg" xmlns:xlink="http://www.w3.org/1999/xlink" x="0px" y="0px"
	 viewBox="0 0 25 26" style="enable-background:new 0 0 25 26;" xml:space="preserve">
<style type="text/css">
	.st0{fill:url(#SVGID_1_);}
</style>
<g>
	<g>
		<linearGradient id="SVGID_1_" gradientUnits="userSpaceOnUse" x1="24.997" y1="12.9999" x2="1.818989e-12" y2="12.9999">
			<stop  offset="0" style="stop-color:#55CAFF"/>
			<stop  offset="1" style="stop-color:#E231FB"/>
		</linearGradient>
		<path class="st0" d="M14.52,9.53C12.6,8.41,10.13,9.05,9,10.95c-1.13,1.9-0.49,4.35,1.43,5.47c0.63,0.37,1.34,0.56,2.07,0.55h0
			c2.22,0.01,4.03-1.76,4.04-3.96C16.55,11.58,15.78,10.25,14.52,9.53z M14.23,13.98c-0.36,0.61-1.02,0.98-1.74,0.98
			c-1.09,0.02-1.99-0.85-2-1.93c-0.01-0.36,0.09-0.71,0.27-1.02c0.55-0.95,1.77-1.27,2.73-0.73C14.45,11.82,14.78,13.03,14.23,13.98
			z M23.14,14.38l0-2.76c1.01-0.75,1.69-2.27,1.78-2.48c0.13-0.29,0.1-0.63-0.06-0.9l-2.02-3.47c-0.16-0.27-0.44-0.46-0.76-0.5
			c-0.31-0.04-0.62-0.05-0.94-0.05c-0.88,0-1.59,0.11-2.12,0.34l-2.41-1.38c-0.15-1.25-1.14-2.58-1.28-2.76
			c-0.19-0.26-0.49-0.41-0.81-0.41L10.48,0h0c-0.32,0-0.62,0.16-0.81,0.41C9.53,0.59,8.54,1.93,8.39,3.18L5.98,4.56
			C5.44,4.33,4.74,4.22,3.85,4.22c-0.31,0-0.62,0.02-0.93,0.05C2.6,4.31,2.32,4.5,2.16,4.77L0.14,8.24
			c-0.16,0.27-0.18,0.61-0.06,0.9c0.09,0.21,0.76,1.72,1.78,2.48l0,2.76c-1.01,0.75-1.69,2.27-1.78,2.48
			c-0.13,0.29-0.1,0.63,0.06,0.9l2.02,3.47c0.16,0.27,0.44,0.46,0.76,0.5c0.31,0.04,0.62,0.05,0.94,0.05c0.88,0,1.59-0.11,2.12-0.34
			l2.41,1.38c0.15,1.25,1.14,2.58,1.28,2.76c0.19,0.26,0.49,0.41,0.81,0.41L14.52,26h0c0.32,0,0.62-0.16,0.81-0.41
			c0.14-0.18,1.13-1.52,1.28-2.77l2.41-1.38c0.53,0.22,1.24,0.34,2.12,0.34c0.31,0,0.62-0.02,0.93-0.05c0.32-0.04,0.6-0.22,0.76-0.5
			l2.02-3.47c0.16-0.27,0.18-0.61,0.06-0.9C24.82,16.65,24.15,15.13,23.14,14.38z M21.86,15.96c0.21,0.11,0.63,0.65,0.96,1.25
			l-1.48,2.55c-0.06,0-0.13,0-0.19,0c-0.86,0-1.28-0.14-1.38-0.2c-0.33-0.33-0.83-0.4-1.24-0.17l-3.46,1.98
			c-0.4,0.23-0.6,0.7-0.47,1.15c0.01,0.23-0.25,0.87-0.61,1.45l-2.97,0c-0.36-0.58-0.62-1.21-0.61-1.45
			c0.12-0.44-0.07-0.92-0.47-1.15l-3.46-1.98c-0.4-0.23-0.91-0.16-1.24,0.17c-0.1,0.06-0.52,0.2-1.38,0.2c-0.07,0-0.13,0-0.2,0
			L2.17,17.2c0.32-0.6,0.75-1.14,0.96-1.25c0.45-0.11,0.77-0.52,0.77-0.98l0-3.96c0-0.46-0.31-0.86-0.77-0.98
			C2.93,9.93,2.5,9.39,2.17,8.79l1.48-2.55c0.06,0,0.13,0,0.19,0c0.86,0,1.28,0.14,1.38,0.2c0.33,0.33,0.83,0.4,1.24,0.17l3.46-1.98
			c0.4-0.23,0.6-0.7,0.47-1.15c-0.01-0.23,0.25-0.87,0.61-1.45l2.97,0c0.36,0.58,0.62,1.21,0.61,1.45
			c-0.12,0.44,0.07,0.92,0.47,1.15l3.46,1.98c0.4,0.23,0.91,0.16,1.24-0.17c0.1-0.06,0.52-0.2,1.38-0.2c0.07,0,0.13,0,0.2,0
			l1.48,2.55c-0.32,0.6-0.75,1.14-0.96,1.25c-0.45,0.12-0.77,0.52-0.77,0.98l0,3.96C21.1,15.44,21.41,15.84,21.86,15.96z"/>
	</g>
</g>
</svg>
