<?xml version="1.0" encoding="utf-8"?>
<!-- Generator: Adobe Illustrator 24.1.2, SVG Export Plug-In . SVG Version: 6.00 Build 0)  -->
<svg version="1.1" id="Слой_1" xmlns="http://www.w3.org/2000/svg" xmlns:xlink="http://www.w3.org/1999/xlink" x="0px" y="0px"
	 viewBox="0 0 25.02 25.02" style="enable-background:new 0 0 25.02 25.02;" xml:space="preserve">
<style type="text/css">
	.st0{fill:url(#SVGID_1_);}
</style>
<g>
	<g>
		<linearGradient id="SVGID_1_" gradientUnits="userSpaceOnUse" x1="25.0226" y1="12.5113" x2="0" y2="12.5113">
			<stop  offset="0" style="stop-color:#55CAFF"/>
			<stop  offset="1" style="stop-color:#E231FB"/>
		</linearGradient>
		<path class="st0" d="M17.98,11.27l-0.16-0.01H7.2c-0.69,0-1.25,0.56-1.25,1.25c0,0.64,0.48,1.16,1.09,1.24l0.16,0.01h10.62
			c0.69,0,1.25-0.56,1.25-1.25C19.07,11.87,18.59,11.35,17.98,11.27z M21.36,3.66c-4.89-4.89-12.81-4.89-17.69,0
			c-4.89,4.89-4.89,12.81,0,17.69c4.89,4.89,12.81,4.89,17.69,0C26.24,16.47,26.24,8.55,21.36,3.66z M19.59,19.59
			c-3.91,3.91-10.25,3.91-14.16,0c-3.91-3.91-3.91-10.25,0-14.16c3.91-3.91,10.25-3.91,14.15,0C23.5,9.34,23.5,15.68,19.59,19.59z"
			/>
	</g>
</g>
</svg>
