<?xml version="1.0" encoding="utf-8"?>
<!-- Generator: Adobe Illustrator 24.1.2, SVG Export Plug-In . SVG Version: 6.00 Build 0)  -->
<svg version="1.1" id="Слой_1" xmlns="http://www.w3.org/2000/svg" xmlns:xlink="http://www.w3.org/1999/xlink" x="0px" y="0px"
	 viewBox="0 0 11.93 11.93" style="enable-background:new 0 0 11.93 11.93;" xml:space="preserve">
<style type="text/css">
	.st0{fill:#C1307B;}
</style>
<path class="st0" d="M5.97,1c0.39,0,0.76,0.15,1.04,0.43l3.49,3.49c0.57,0.57,0.57,1.51,0,2.08L7.01,10.5
	c-0.28,0.28-0.65,0.43-1.04,0.43c-0.39,0-0.76-0.15-1.04-0.43L1.43,7.01c-0.57-0.57-0.57-1.51,0-2.08l3.49-3.49
	C5.2,1.15,5.57,1,5.97,1 M5.97,0C5.33,0,4.7,0.24,4.22,0.72L0.72,4.22c-0.96,0.97-0.96,2.53,0,3.49l3.49,3.49
	c0.48,0.48,1.11,0.72,1.75,0.72c0.63,0,1.26-0.24,1.75-0.72l3.49-3.49c0.97-0.97,0.97-2.53,0-3.49L7.71,0.72C7.23,0.24,6.6,0,5.97,0
	L5.97,0z"/>
</svg>
