<?xml version="1.0" encoding="utf-8"?>
<!-- Generator: Adobe Illustrator 24.1.2, SVG Export Plug-In . SVG Version: 6.00 Build 0)  -->
<svg version="1.1" id="Слой_1" xmlns="http://www.w3.org/2000/svg" xmlns:xlink="http://www.w3.org/1999/xlink" x="0px" y="0px"
	 viewBox="0 0 28.97 28.97" style="enable-background:new 0 0 28.97 28.97;" xml:space="preserve">
<style type="text/css">
	.st0{fill:#55CAFF;}
</style>
<path class="st0" d="M14.49,1c1.34,0,2.59,0.52,3.54,1.46l8.49,8.49c0.94,0.94,1.46,2.2,1.46,3.54s-0.52,2.59-1.46,3.54l-8.49,8.49
	c-0.94,0.94-2.2,1.46-3.54,1.46c-1.34,0-2.59-0.52-3.54-1.46l-8.49-8.49C1.52,17.08,1,15.82,1,14.49s0.52-2.59,1.46-3.54l8.49-8.49
	C11.89,1.52,13.15,1,14.49,1 M14.49,0c-1.54,0-3.07,0.59-4.24,1.76l-8.49,8.49c-2.34,2.34-2.34,6.14,0,8.49l8.49,8.49
	c1.17,1.17,2.71,1.76,4.24,1.76s3.07-0.59,4.24-1.76l8.49-8.49c2.34-2.34,2.34-6.14,0-8.49l-8.49-8.49C17.56,0.59,16.02,0,14.49,0
	L14.49,0z"/>
</svg>
