<?xml version="1.0" encoding="utf-8"?>
<!-- Generator: Adobe Illustrator 24.1.2, SVG Export Plug-In . SVG Version: 6.00 Build 0)  -->
<svg version="1.1" id="Слой_1" xmlns="http://www.w3.org/2000/svg" xmlns:xlink="http://www.w3.org/1999/xlink" x="0px" y="0px"
	 viewBox="0 0 18.47 15.27" style="enable-background:new 0 0 18.47 15.27;" xml:space="preserve">
<style type="text/css">
	.st0{fill:#FFFFFF;}
</style>
<g>
	<g>
		<path class="st0" d="M16.9,0.13c0,0-3.68,1.51-4.77,1.98c-2.83,1.18-11,4.53-11,4.53c-1.94,0.76-0.8,1.46-0.8,1.46
			S1.98,8.68,3.4,9.11c1.42,0.42,2.17-0.05,2.17-0.05s3.31-2.17,6.66-4.49c2.36-1.61,1.79-0.28,1.23,0.28
			C12.23,6.08,10.2,8.02,8.5,9.58c-0.76,0.66-0.38,1.23-0.05,1.51c1.23,1.04,4.58,3.16,4.77,3.3c0.24,0.19,1.56,1.04,2.36,0.85
			c0.8-0.19,0.9-1.27,0.9-1.27s0.61-3.87,1.18-7.41c0.38-2.5,0.76-4.82,0.8-5.48C18.6-0.53,16.9,0.13,16.9,0.13z"/>
	</g>
</g>
</svg>
