<?xml version="1.0" encoding="utf-8"?>
<!-- Generator: Adobe Illustrator 24.1.2, SVG Export Plug-In . SVG Version: 6.00 Build 0)  -->
<svg version="1.1" id="Слой_1" xmlns="http://www.w3.org/2000/svg" xmlns:xlink="http://www.w3.org/1999/xlink" x="0px" y="0px"
	 viewBox="0 0 27.7 27.9" style="enable-background:new 0 0 27.7 27.9;" xml:space="preserve">
<style type="text/css">
	.st0{fill:url(#SVGID_1_);}
</style>
<linearGradient id="SVGID_1_" gradientUnits="userSpaceOnUse" x1="27.7476" y1="13.9459" x2="-1.818989e-12" y2="13.9459">
	<stop  offset="0" style="stop-color:#55CAFF"/>
	<stop  offset="1" style="stop-color:#E231FB"/>
</linearGradient>
<path class="st0" d="M18.2,0.5l9.1,9.1c0.6,0.6,0.6,1.5,0.1,2.1l-9.1,10.6l-0.1,0.1c-1,0.9-2.6,0.2-2.6-1.1l0-4.5l-0.4,0
	c-5.1,0.5-8.4,3-10.1,7.5l-0.2,0.4c-1.1,3.3-3.9,4.5-4.7,0.9C-0.2,24,0,21.2,0.8,18.4L0.9,18C3,10.9,7.9,6.1,15.3,6l0.2,0l0-4.5
	C15.5,0.2,17.2-0.5,18.2,0.5L18.2,0.5z M24.1,10.7l-5.5-5.5l0,2.4c0,0.9-0.8,1.6-1.7,1.5c-7-0.6-11.4,3.5-13.2,10.1l-0.1,0.4
	l-0.1,0.4l-0.1,0.4l0,0c2.7-4.5,7.3-6.8,13.6-6.8l0.2,0c0.8,0.1,1.4,0.7,1.4,1.5l0,1.9L24.1,10.7z"/>
</svg>
