<?xml version="1.0" encoding="utf-8"?>
<!-- Generator: Adobe Illustrator 24.1.2, SVG Export Plug-In . SVG Version: 6.00 Build 0)  -->
<svg version="1.1" id="Слой_1" xmlns="http://www.w3.org/2000/svg" xmlns:xlink="http://www.w3.org/1999/xlink" x="0px" y="0px"
	 viewBox="0 0 16.48 13.18" style="enable-background:new 0 0 16.48 13.18;" xml:space="preserve">
<style type="text/css">
	.st0{fill:#FFFFFF;}
</style>
<g>
	<g>
		<path class="st0" d="M16.48,1.56C15.87,1.82,15.22,2,14.54,2.08c0.7-0.41,1.23-1.06,1.49-1.84c-0.65,0.38-1.38,0.66-2.15,0.81
			C13.26,0.4,12.38,0,11.41,0C9.54,0,8.03,1.49,8.03,3.33c0,0.26,0.03,0.51,0.09,0.76c-2.81-0.14-5.3-1.46-6.97-3.48
			C0.86,1.1,0.69,1.67,0.69,2.28c0,1.15,0.6,2.17,1.5,2.77C1.64,5.03,1.12,4.88,0.66,4.63c0,0.01,0,0.03,0,0.04
			c0,1.61,1.17,2.96,2.71,3.26C3.09,8.02,2.79,8.06,2.48,8.06C2.27,8.06,2.05,8.03,1.85,8C2.28,9.32,3.53,10.28,5,10.31
			c-1.16,0.89-2.61,1.42-4.2,1.42c-0.27,0-0.54-0.02-0.81-0.05c1.5,0.94,3.27,1.49,5.18,1.49c6.22,0,9.62-5.07,9.62-9.47
			c0-0.14,0-0.29-0.01-0.43C15.45,2.81,16.02,2.23,16.48,1.56z"/>
	</g>
</g>
</svg>
