<?xml version="1.0" encoding="utf-8"?>
<!-- Generator: Adobe Illustrator 24.1.2, SVG Export Plug-In . SVG Version: 6.00 Build 0)  -->
<svg version="1.1" id="Слой_1" xmlns="http://www.w3.org/2000/svg" xmlns:xlink="http://www.w3.org/1999/xlink" x="0px" y="0px"
	 viewBox="0 0 21.29 21.29" style="enable-background:new 0 0 21.29 21.29;" xml:space="preserve">
<style type="text/css">
	.st0{fill-rule:evenodd;clip-rule:evenodd;fill:#55CAFF;}
</style>
<path class="st0" d="M12.44,10.65l8.48-8.48c0.23-0.23,0.37-0.55,0.37-0.9c0-0.7-0.57-1.27-1.27-1.27c-0.35,0-0.67,0.14-0.9,0.37
	l-8.48,8.48L2.16,0.37C1.93,0.14,1.62,0,1.27,0C0.57,0,0,0.57,0,1.27c0,0.35,0.14,0.67,0.37,0.9l8.48,8.48l-8.48,8.48
	C0.14,19.36,0,19.67,0,20.02c0,0.7,0.57,1.27,1.27,1.27c0.35,0,0.67-0.14,0.9-0.37l8.48-8.48l8.48,8.48
	c0.23,0.23,0.55,0.37,0.9,0.37c0.7,0,1.27-0.57,1.27-1.27c0-0.35-0.14-0.67-0.37-0.9L12.44,10.65z"/>
</svg>
