<?xml version="1.0" encoding="utf-8"?>
<!-- Generator: Adobe Illustrator 24.1.2, SVG Export Plug-In . SVG Version: 6.00 Build 0)  -->
<svg version="1.1" id="Слой_1" xmlns="http://www.w3.org/2000/svg" xmlns:xlink="http://www.w3.org/1999/xlink" x="0px" y="0px"
	 viewBox="0 0 19.89 13.91" style="enable-background:new 0 0 19.89 13.91;" xml:space="preserve">
<style type="text/css">
	.st0{fill:#FFFFFF;}
</style>
<g>
	<g>
		<path class="st0" d="M19.45,2.18c-0.23-0.86-0.9-1.53-1.76-1.76C16.15,0,9.93,0,9.93,0S3.72,0.01,2.18,0.43
			c-0.86,0.23-1.53,0.9-1.76,1.76c-0.47,2.74-0.65,6.91,0.01,9.54c0.23,0.86,0.9,1.53,1.76,1.76c1.54,0.42,7.76,0.42,7.76,0.42
			s6.21,0,7.76-0.42c0.86-0.23,1.53-0.9,1.76-1.76C19.96,8.99,20.11,4.82,19.45,2.18z M7.96,9.93V3.97l5.15,2.98L7.96,9.93z"/>
	</g>
</g>
</svg>
