<?xml version="1.0" encoding="utf-8"?>
<!-- Generator: Adobe Illustrator 24.1.2, SVG Export Plug-In . SVG Version: 6.00 Build 0)  -->
<svg version="1.1" id="Слой_1" xmlns="http://www.w3.org/2000/svg" xmlns:xlink="http://www.w3.org/1999/xlink" x="0px" y="0px"
	 viewBox="0 0 17.7 17.7" style="enable-background:new 0 0 17.7 17.7;" xml:space="preserve">
<style type="text/css">
	.st0{fill:#3C2175;}
</style>
<g>
	<g>
		<path class="st0" d="M8.85,0C3.97,0,0,3.97,0,8.85c0,4.88,3.97,8.85,8.85,8.85c4.88,0,8.85-3.97,8.85-8.85
			C17.7,3.97,13.73,0,8.85,0z M13.51,14.38c-0.43-2.18-2.35-3.84-4.66-3.84c-2.31,0-4.23,1.66-4.66,3.84
			c-1.57-1.32-2.57-3.32-2.57-5.53c0-3.99,3.24-7.23,7.23-7.23c3.99,0,7.23,3.24,7.23,7.23C16.08,11.07,15.07,13.06,13.51,14.38z
			 M8.85,3.95c-1.59,0-2.89,1.29-2.89,2.89c0,1.6,1.29,2.89,2.89,2.89c1.59,0,2.89-1.29,2.89-2.89C11.74,5.24,10.45,3.95,8.85,3.95z
			"/>
	</g>
</g>
</svg>
