<?xml version="1.0" encoding="utf-8"?>
<!-- Generator: Adobe Illustrator 24.1.2, SVG Export Plug-In . SVG Version: 6.00 Build 0)  -->
<svg version="1.1" id="Слой_1" xmlns="http://www.w3.org/2000/svg" xmlns:xlink="http://www.w3.org/1999/xlink" x="0px" y="0px"
	 viewBox="0 0 28.6 28.6" style="enable-background:new 0 0 28.6 28.6;" xml:space="preserve">
<style type="text/css">
	.st0{fill:url(#SVGID_1_);}
</style>
<linearGradient id="SVGID_1_" gradientUnits="userSpaceOnUse" x1="28.6178" y1="14.3106" x2="0" y2="14.3106">
	<stop  offset="0" style="stop-color:#55CAFF"/>
	<stop  offset="1" style="stop-color:#E231FB"/>
</linearGradient>
<path class="st0" d="M25.8,12.9c0.7,0,1.3,0.6,1.4,1.3l0,0.2v2.9c0,3.8-3,7-6.8,7.1l-0.3,0H4.9l1.8,1.9c0.6,0.6,0.6,1.5,0,2
	c-0.5,0.5-1.3,0.6-1.9,0.1l-0.1-0.1l-4.3-4.3c-0.6-0.6-0.6-1.5,0-2l4.3-4.3c0.6-0.6,1.5-0.6,2,0c0.5,0.5,0.6,1.3,0.1,1.9l-0.1,0.1
	l-1.9,1.9H20c2.3,0,4.2-1.8,4.3-4l0-0.3v-2.9C24.3,13.5,25,12.9,25.8,12.9L25.8,12.9z M23.8,0.3l0.1,0.1l4.3,4.3
	c0.5,0.5,0.6,1.3,0.1,1.9l-0.1,0.1L23.9,11c-0.6,0.6-1.5,0.6-2,0c-0.5-0.5-0.6-1.3-0.1-1.9L21.9,9l1.8-1.8H8.6c-2.3,0-4.2,1.8-4.3,4
	l0,0.3v2.9c0,0.8-0.6,1.4-1.4,1.4c-0.7,0-1.3-0.6-1.4-1.3l0-0.2v-2.9c0-3.8,3-7,6.8-7.1l0.3,0h15.1l-1.8-1.8c-0.6-0.6-0.6-1.5,0-2
	C22.4-0.1,23.2-0.1,23.8,0.3L23.8,0.3z"/>
</svg>
